<svg width="143" height="44" viewBox="0 0 143 44" fill="none" xmlns="http://www.w3.org/2000/svg">
<path d="M29.5785 21.584L25.1456 27.3407H17.2386V43.7183H10.3895V27.3407H0L4.43284 21.584H29.5785Z" fill="#264653"/>
<path d="M60.8463 43.7178H51.6815L46.7512 37.8619H36.2295V43.7178H29.3804V32.4027H48.6371C49.6965 32.4027 50.589 32.1823 51.3163 31.7416C52.0436 31.3008 52.4088 30.6947 52.4088 29.9218C52.4088 29.0623 52.0782 28.4169 51.4155 27.9856C50.7543 27.5559 49.8271 27.3402 48.6355 27.3402H29.3804L33.8478 21.5835H48.0751C49.3329 21.5835 50.6331 21.7 51.979 21.9314C53.3249 22.1628 54.548 22.5768 55.6515 23.1718C56.7534 23.7669 57.6633 24.5728 58.3811 25.5866C59.0974 26.6019 59.4563 27.9022 59.4563 29.4905C59.4563 30.35 59.324 31.167 59.0596 31.9383C58.7951 32.7112 58.4142 33.4054 57.9183 34.0225C57.4225 34.6396 56.8148 35.1638 56.0986 35.5935C55.3824 36.0233 54.5717 36.3271 53.6665 36.5034C54.0412 36.7899 54.4615 37.1535 54.9243 37.5959C55.3871 38.0366 56.0041 38.6443 56.7771 39.4156L60.8463 43.7178Z" fill="#264653"/>
<path d="M89.002 38.0272L84.6023 43.7178H63.2944V21.5835H88.9359L84.5015 27.3402H70.1751V29.9864H87.7112L83.7743 35.0158H70.1751V38.0272H89.002Z" fill="#264653"/>
<path d="M119.508 32.4364C119.508 34.0467 119.171 35.5406 118.499 36.9196C117.825 38.2985 116.9 39.4902 115.719 40.4929C114.538 41.4972 113.133 42.2859 111.5 42.8589C109.868 43.4319 108.092 43.7184 106.173 43.7184H91.3525V29.9208H98.2348V38.0262H106.175C107.122 38.0262 107.999 37.9003 108.805 37.6453C109.61 37.3918 110.299 37.0329 110.874 36.5701C111.447 36.1073 111.898 35.55 112.231 34.8999C112.561 34.2498 112.726 33.5272 112.726 32.7323C112.726 31.961 112.561 31.2431 112.231 30.582C111.9 29.9209 111.436 29.3526 110.841 28.8788C110.246 28.4049 109.55 28.0303 108.756 27.7532C107.963 27.4778 107.102 27.3392 106.176 27.3392H91.3525L95.7193 21.5825H106.175C108.116 21.5825 109.902 21.847 111.535 22.3759C113.167 22.9048 114.573 23.6494 115.754 24.6096C116.933 25.5699 117.855 26.7159 118.516 28.0507C119.177 29.3872 119.508 30.848 119.508 32.4364Z" fill="#264653"/>
<path d="M131.448 10.975V0H121.71V10.975H110.735V18.5121L114.649 14.5988L113.637 13.5866H118.32L118.318 18.2681L117.306 17.2559L113.849 20.7128H118.422L125.109 14.0273L123.776 12.694H129.94V18.8584L128.607 17.5236L121.71 24.42V29.4651L125.547 25.6289L124.734 24.8151H128.492V28.5742L127.68 27.7619L123.752 31.6878H131.448V20.7128H142.423V10.975H131.448Z" fill="#33CCCC"/>
</svg>
